<svg width="23" height="33" viewBox="0 0 23 33" fill="none" xmlns="http://www.w3.org/2000/svg">
<path fill-rule="evenodd" clip-rule="evenodd" d="M7.15883 3.53681C6.69733 4.61906 6.65996 6.00437 6.70627 7.3125H21.896C22.3445 7.3125 22.7133 7.67812 22.6621 8.12337C22.3493 10.8574 20.4692 13.2364 17.7335 14.7022C17.8026 15.0215 17.8335 15.3506 17.8335 15.6837C17.8335 17.1616 16.7146 18.3284 15.5186 19.0694C14.727 19.5536 13.8625 19.9072 12.9585 20.1167V18.4373C13.5579 18.2647 14.1315 18.0125 14.6639 17.6873C15.7023 17.0446 16.2085 16.3036 16.2085 15.6837C16.2085 15.5829 16.2044 15.4871 16.1971 15.3944C14.9808 15.847 13.6458 16.1354 12.2394 16.2224V22.75H10.6144V16.2321C5.00977 15.9575 0.505267 12.4946 0.00476711 8.12337C-0.0464204 7.67812 0.321642 7.3125 0.770955 7.3125H5.08046C5.03414 5.98569 5.06339 4.30787 5.66383 2.89981C6.00833 2.09137 6.54945 1.34794 7.38064 0.814937C8.20939 0.284375 9.26321 0 10.5681 0C12.1663 0 13.4663 0.580125 14.3511 1.14238C14.7955 1.42431 15.1433 1.70706 15.383 1.92156C15.5143 2.03937 15.6407 2.16271 15.7616 2.29125L15.7697 2.29938L15.7713 2.30263L15.773 2.30344C15.773 2.30344 15.773 2.30506 15.1766 2.834L15.7738 2.30506C15.9121 2.46681 15.9815 2.67641 15.967 2.88878C15.9524 3.10114 15.8551 3.29932 15.696 3.44068C15.5368 3.58205 15.3285 3.65532 15.1159 3.64473C14.9033 3.63414 14.7034 3.54054 14.5591 3.38406L14.551 3.37513C14.4701 3.29073 14.3861 3.20942 14.2991 3.13138C14.0433 2.9036 13.7694 2.69708 13.4801 2.51388C12.7651 2.0605 11.7665 1.625 10.5681 1.625C9.49883 1.625 8.76839 1.85575 8.25814 2.18237C7.75114 2.50738 7.40095 2.96806 7.15883 3.53681ZM1.83208 8.9375C2.78677 11.9925 6.43652 14.625 11.3335 14.625C16.2304 14.625 19.881 11.9925 20.8348 8.9375H1.83208Z" fill="black"/>
<path d="M4.83345 30.875V32.5H17.8335V30.875H15.3805C15.9168 30.2152 16.2085 29.3841 16.2085 28.4375C16.2085 27.1822 15.695 26.13 14.7809 25.4117C13.8871 24.7106 12.6781 24.375 11.3335 24.375C10.1285 24.375 9.05845 24.2694 8.31177 23.9371C7.95345 23.7778 7.70483 23.5812 7.54314 23.3504C7.38552 23.1254 7.27095 22.8109 7.27095 22.3429C7.27095 21.8766 7.3847 21.5629 7.54314 21.3371C7.70483 21.1063 7.95345 20.9097 8.31177 20.7504C8.69933 20.5782 9.17302 20.4661 9.70845 20.3994V18.7631C8.98208 18.8411 8.27033 18.9906 7.65202 19.2652C7.09627 19.5122 6.58358 19.8746 6.21145 20.4051C5.83608 20.9414 5.64595 21.5922 5.64595 22.3437C5.64595 23.0953 5.83608 23.7461 6.21145 24.2824C6.58358 24.8129 7.09708 25.1753 7.65202 25.4223C8.73264 25.9025 10.1009 25.9992 11.3335 25.9992C12.4271 25.9992 13.2477 26.2738 13.7766 26.6898C14.2845 27.0879 14.5835 27.6616 14.5835 28.4367C14.5835 29.2134 14.2845 29.7862 13.7766 30.1852C13.4053 30.4769 12.891 30.6987 12.2394 30.8051V27.625H10.6144V30.875H4.83345Z" fill="black"/>
</svg>
