<svg width="30" height="37" viewBox="0 0 30 37" fill="none" xmlns="http://www.w3.org/2000/svg">
<path d="M9.3125 6.875V4.4375H3.625C3.19402 4.4375 2.7807 4.6087 2.47595 4.91345C2.17121 5.2182 2 5.63152 2 6.0625V32.875C2 33.306 2.17121 33.7193 2.47595 34.024C2.7807 34.3288 3.19402 34.5 3.625 34.5H26.375C26.806 34.5 27.2193 34.3288 27.524 34.024C27.8288 33.7193 28 33.306 28 32.875V6.0625C28 5.63152 27.8288 5.2182 27.524 4.91345C27.2193 4.6087 26.806 4.4375 26.375 4.4375H20.6875V6.875M9.3125 6.875H20.6875M9.3125 6.875V2H20.6875V6.875M17.4375 14.1875L10.9375 20.6883H19.0658L12.5625 27.1883" stroke="#2CB7CA" stroke-width="3.25" stroke-linecap="round" stroke-linejoin="round"/>
</svg>
