<svg width="30" height="30" viewBox="0 0 30 30" fill="none" xmlns="http://www.w3.org/2000/svg">
<path d="M2 24.75H0.375H2ZM8.5 18.25V16.625V18.25ZM21.5 18.25V16.625V18.25ZM3.625 24.75C3.625 23.4571 4.13861 22.2171 5.05285 21.3029L2.75476 19.0048C1.23102 20.5285 0.375 22.5951 0.375 24.75H3.625ZM5.05285 21.3029C5.96709 20.3886 7.20707 19.875 8.5 19.875V16.625C6.34512 16.625 4.27849 17.481 2.75476 19.0048L5.05285 21.3029ZM8.5 19.875H21.5V16.625H8.5V19.875ZM21.5 19.875C22.7929 19.875 24.0329 20.3886 24.9471 21.3029L27.2452 19.0048C25.7215 17.481 23.6549 16.625 21.5 16.625V19.875ZM24.9471 21.3029C25.8614 22.2171 26.375 23.4571 26.375 24.75H29.625C29.625 22.5951 28.769 20.5285 27.2452 19.0048L24.9471 21.3029ZM26.375 24.75C26.375 25.181 26.2038 25.5943 25.899 25.899L28.1971 28.1971C29.1114 27.2829 29.625 26.0429 29.625 24.75H26.375ZM25.899 25.899C25.5943 26.2038 25.181 26.375 24.75 26.375V29.625C26.0429 29.625 27.2829 29.1114 28.1971 28.1971L25.899 25.899ZM24.75 26.375H5.25V29.625H24.75V26.375ZM5.25 26.375C4.81902 26.375 4.4057 26.2038 4.10095 25.899L1.80285 28.1971C2.71709 29.1114 3.95707 29.625 5.25 29.625V26.375ZM4.10095 25.899C3.7962 25.5943 3.625 25.181 3.625 24.75H0.375C0.375 26.0429 0.888615 27.2829 1.80285 28.1971L4.10095 25.899ZM18.25 6.875C18.25 8.66993 16.7949 10.125 15 10.125V13.375C18.5899 13.375 21.5 10.4649 21.5 6.875H18.25ZM15 10.125C13.2051 10.125 11.75 8.66993 11.75 6.875H8.5C8.5 10.4649 11.4101 13.375 15 13.375V10.125ZM11.75 6.875C11.75 5.08007 13.2051 3.625 15 3.625V0.375C11.4101 0.375 8.5 3.28515 8.5 6.875H11.75ZM15 3.625C16.7949 3.625 18.25 5.08007 18.25 6.875H21.5C21.5 3.28515 18.5899 0.375 15 0.375V3.625Z" fill="#2CB7CA"/>
</svg>
